<svg width="159" height="157" viewBox="0 0 159 157" fill="none" xmlns="http://www.w3.org/2000/svg">
<mask id="path-1-outside-1_69_881" maskUnits="userSpaceOnUse" x="32" y="40" width="97" height="27" fill="black">
<rect fill="white" x="32" y="40" width="97" height="27"/>
<path d="M51.9062 58.125C51.9062 59.5104 51.5469 60.7552 50.8281 61.8594C50.1198 62.9635 49.0781 63.8281 47.7031 64.4531C46.3281 65.0781 44.6979 65.3906 42.8125 65.3906C40.5521 65.3906 38.6875 64.9635 37.2188 64.1094C36.1771 63.4948 35.3281 62.6771 34.6719 61.6562C34.026 60.625 33.7031 59.625 33.7031 58.6562C33.7031 58.0938 33.8958 57.6146 34.2812 57.2188C34.6771 56.8125 35.1771 56.6094 35.7812 56.6094C36.2708 56.6094 36.6823 56.7656 37.0156 57.0781C37.3594 57.3906 37.651 57.8542 37.8906 58.4688C38.1823 59.1979 38.4948 59.8073 38.8281 60.2969C39.1719 60.7865 39.651 61.1927 40.2656 61.5156C40.8802 61.8281 41.6875 61.9844 42.6875 61.9844C44.0625 61.9844 45.1771 61.6667 46.0312 61.0312C46.8958 60.3854 47.3281 59.5833 47.3281 58.625C47.3281 57.8646 47.0938 57.25 46.625 56.7812C46.1667 56.3021 45.5677 55.9375 44.8281 55.6875C44.099 55.4375 43.1198 55.1719 41.8906 54.8906C40.2448 54.5052 38.8646 54.0573 37.75 53.5469C36.6458 53.026 35.7656 52.3229 35.1094 51.4375C34.4635 50.5417 34.1406 49.4323 34.1406 48.1094C34.1406 46.849 34.4844 45.7292 35.1719 44.75C35.8594 43.7708 36.8542 43.0208 38.1562 42.5C39.4583 41.9688 40.9896 41.7031 42.75 41.7031C44.1562 41.7031 45.3698 41.8802 46.3906 42.2344C47.4219 42.5781 48.276 43.0417 48.9531 43.625C49.6302 44.1979 50.125 44.8021 50.4375 45.4375C50.75 46.0729 50.9062 46.6927 50.9062 47.2969C50.9062 47.849 50.7083 48.349 50.3125 48.7969C49.9271 49.2344 49.4427 49.4531 48.8594 49.4531C48.3281 49.4531 47.9219 49.3229 47.6406 49.0625C47.3698 48.7917 47.0729 48.3542 46.75 47.75C46.3333 46.8854 45.8333 46.2135 45.25 45.7344C44.6667 45.2448 43.7292 45 42.4375 45C41.2396 45 40.2708 45.2656 39.5312 45.7969C38.8021 46.3177 38.4375 46.9479 38.4375 47.6875C38.4375 48.1458 38.5625 48.5417 38.8125 48.875C39.0625 49.2083 39.4062 49.4948 39.8438 49.7344C40.2812 49.974 40.724 50.1615 41.1719 50.2969C41.6198 50.4323 42.3594 50.6302 43.3906 50.8906C44.6823 51.1927 45.849 51.526 46.8906 51.8906C47.9427 52.2552 48.8333 52.6979 49.5625 53.2188C50.3021 53.7396 50.875 54.401 51.2812 55.2031C51.6979 55.9948 51.9062 56.9688 51.9062 58.125ZM69.7344 57.0312V62.7031C69.7344 63.599 69.5312 64.2708 69.125 64.7188C68.7188 65.1667 68.1823 65.3906 67.5156 65.3906C66.8698 65.3906 66.3438 65.1667 65.9375 64.7188C65.5417 64.2708 65.3438 63.599 65.3438 62.7031V55.9062C65.3438 54.8333 65.3073 54 65.2344 53.4062C65.1615 52.8125 64.9635 52.3281 64.6406 51.9531C64.3177 51.5677 63.8073 51.375 63.1094 51.375C61.7135 51.375 60.7917 51.8542 60.3438 52.8125C59.9062 53.7708 59.6875 55.1458 59.6875 56.9375V62.7031C59.6875 63.5885 59.4844 64.2604 59.0781 64.7188C58.6823 65.1667 58.1562 65.3906 57.5 65.3906C56.8542 65.3906 56.3229 65.1667 55.9062 64.7188C55.5 64.2604 55.2969 63.5885 55.2969 62.7031V50.5C55.2969 49.6979 55.4792 49.0885 55.8438 48.6719C56.2188 48.2552 56.7083 48.0469 57.3125 48.0469C57.8958 48.0469 58.3802 48.2448 58.7656 48.6406C59.1615 49.026 59.3594 49.5625 59.3594 50.25V50.6562C60.099 49.7708 60.8906 49.1198 61.7344 48.7031C62.5781 48.2865 63.5156 48.0781 64.5469 48.0781C65.6198 48.0781 66.5417 48.2917 67.3125 48.7188C68.0833 49.1458 68.7188 49.7917 69.2188 50.6562C69.9375 49.7812 70.7083 49.1354 71.5312 48.7188C72.3542 48.2917 73.2656 48.0781 74.2656 48.0781C75.4323 48.0781 76.4375 48.3073 77.2812 48.7656C78.125 49.224 78.7552 49.8802 79.1719 50.7344C79.5365 51.5052 79.7188 52.7188 79.7188 54.375V62.7031C79.7188 63.599 79.5156 64.2708 79.1094 64.7188C78.7031 65.1667 78.1667 65.3906 77.5 65.3906C76.8542 65.3906 76.3229 65.1667 75.9062 64.7188C75.5 64.2604 75.2969 63.5885 75.2969 62.7031V55.5312C75.2969 54.6146 75.2552 53.8802 75.1719 53.3281C75.099 52.776 74.8906 52.3125 74.5469 51.9375C74.2031 51.5625 73.6823 51.375 72.9844 51.375C72.4219 51.375 71.8854 51.5417 71.375 51.875C70.875 52.2083 70.4844 52.6562 70.2031 53.2188C69.8906 53.9375 69.7344 55.2083 69.7344 57.0312ZM94.6406 62.9844C93.6094 63.7865 92.6094 64.3906 91.6406 64.7969C90.6823 65.1927 89.6042 65.3906 88.4062 65.3906C87.3125 65.3906 86.349 65.1771 85.5156 64.75C84.6927 64.3125 84.0573 63.724 83.6094 62.9844C83.1615 62.2448 82.9375 61.4427 82.9375 60.5781C82.9375 59.4115 83.3073 58.4167 84.0469 57.5938C84.7865 56.7708 85.8021 56.2188 87.0938 55.9375C87.3646 55.875 88.0365 55.7344 89.1094 55.5156C90.1823 55.2969 91.099 55.099 91.8594 54.9219C92.6302 54.7344 93.4635 54.5104 94.3594 54.25C94.3073 53.125 94.0781 52.3021 93.6719 51.7812C93.276 51.25 92.4479 50.9844 91.1875 50.9844C90.1042 50.9844 89.2865 51.1354 88.7344 51.4375C88.1927 51.7396 87.724 52.1927 87.3281 52.7969C86.9427 53.401 86.6667 53.8021 86.5 54C86.3438 54.1875 86 54.2812 85.4688 54.2812C84.9896 54.2812 84.5729 54.1302 84.2188 53.8281C83.875 53.5156 83.7031 53.1198 83.7031 52.6406C83.7031 51.8906 83.9688 51.1615 84.5 50.4531C85.0312 49.7448 85.8594 49.1615 86.9844 48.7031C88.1094 48.2448 89.5104 48.0156 91.1875 48.0156C93.0625 48.0156 94.5365 48.2396 95.6094 48.6875C96.6823 49.125 97.4375 49.8229 97.875 50.7812C98.3229 51.7396 98.5469 53.0104 98.5469 54.5938C98.5469 55.5938 98.5417 56.4427 98.5312 57.1406C98.5312 57.8385 98.526 58.6146 98.5156 59.4688C98.5156 60.2708 98.6458 61.1094 98.9062 61.9844C99.1771 62.849 99.3125 63.4062 99.3125 63.6562C99.3125 64.0938 99.1042 64.4948 98.6875 64.8594C98.2812 65.2135 97.8177 65.3906 97.2969 65.3906C96.8594 65.3906 96.4271 65.1875 96 64.7812C95.5729 64.3646 95.1198 63.7656 94.6406 62.9844ZM94.3594 56.8125C93.7344 57.0417 92.8229 57.2865 91.625 57.5469C90.4375 57.7969 89.6146 57.9844 89.1562 58.1094C88.6979 58.224 88.2604 58.4583 87.8438 58.8125C87.4271 59.1562 87.2188 59.6406 87.2188 60.2656C87.2188 60.9115 87.4635 61.4635 87.9531 61.9219C88.4427 62.3698 89.0833 62.5938 89.875 62.5938C90.7188 62.5938 91.4948 62.4115 92.2031 62.0469C92.9219 61.6719 93.4479 61.1927 93.7812 60.6094C94.1667 59.9635 94.3594 58.901 94.3594 57.4219V56.8125ZM107.125 59.2344V62.7969C107.125 63.6615 106.922 64.3125 106.516 64.75C106.109 65.1771 105.594 65.3906 104.969 65.3906C104.354 65.3906 103.849 65.1719 103.453 64.7344C103.057 64.2969 102.859 63.651 102.859 62.7969V50.9219C102.859 49.0052 103.552 48.0469 104.938 48.0469C105.646 48.0469 106.156 48.2708 106.469 48.7188C106.781 49.1667 106.953 49.8281 106.984 50.7031C107.495 49.8281 108.016 49.1667 108.547 48.7188C109.089 48.2708 109.807 48.0469 110.703 48.0469C111.599 48.0469 112.469 48.2708 113.312 48.7188C114.156 49.1667 114.578 49.7604 114.578 50.5C114.578 51.0208 114.396 51.4531 114.031 51.7969C113.677 52.1302 113.292 52.2969 112.875 52.2969C112.719 52.2969 112.339 52.2031 111.734 52.0156C111.141 51.8177 110.615 51.7188 110.156 51.7188C109.531 51.7188 109.021 51.8854 108.625 52.2188C108.229 52.5417 107.922 53.026 107.703 53.6719C107.484 54.3177 107.333 55.0885 107.25 55.9844C107.167 56.8698 107.125 57.9531 107.125 59.2344ZM117.562 48.4219H118.031V45.8594C118.031 45.1719 118.047 44.6354 118.078 44.25C118.12 43.8542 118.224 43.5156 118.391 43.2344C118.557 42.9427 118.797 42.7083 119.109 42.5312C119.422 42.3438 119.771 42.25 120.156 42.25C120.698 42.25 121.188 42.4531 121.625 42.8594C121.917 43.1302 122.099 43.4635 122.172 43.8594C122.255 44.2448 122.297 44.7969 122.297 45.5156V48.4219H123.859C124.464 48.4219 124.922 48.5677 125.234 48.8594C125.557 49.1406 125.719 49.5052 125.719 49.9531C125.719 50.526 125.49 50.9271 125.031 51.1562C124.583 51.3854 123.938 51.5 123.094 51.5H122.297V59.3438C122.297 60.0104 122.318 60.526 122.359 60.8906C122.411 61.2448 122.536 61.5365 122.734 61.7656C122.943 61.9844 123.276 62.0938 123.734 62.0938C123.984 62.0938 124.323 62.0521 124.75 61.9688C125.177 61.875 125.51 61.8281 125.75 61.8281C126.094 61.8281 126.401 61.9688 126.672 62.25C126.953 62.5208 127.094 62.8594 127.094 63.2656C127.094 63.9531 126.719 64.4792 125.969 64.8438C125.219 65.2083 124.141 65.3906 122.734 65.3906C121.401 65.3906 120.391 65.1667 119.703 64.7188C119.016 64.2708 118.562 63.651 118.344 62.8594C118.135 62.0677 118.031 61.0104 118.031 59.6875V51.5H117.469C116.854 51.5 116.385 51.3542 116.062 51.0625C115.74 50.7708 115.578 50.401 115.578 49.9531C115.578 49.5052 115.745 49.1406 116.078 48.8594C116.422 48.5677 116.917 48.4219 117.562 48.4219Z"/>
</mask>
<path d="M51.9062 58.125C51.9062 59.5104 51.5469 60.7552 50.8281 61.8594C50.1198 62.9635 49.0781 63.8281 47.7031 64.4531C46.3281 65.0781 44.6979 65.3906 42.8125 65.3906C40.5521 65.3906 38.6875 64.9635 37.2188 64.1094C36.1771 63.4948 35.3281 62.6771 34.6719 61.6562C34.026 60.625 33.7031 59.625 33.7031 58.6562C33.7031 58.0938 33.8958 57.6146 34.2812 57.2188C34.6771 56.8125 35.1771 56.6094 35.7812 56.6094C36.2708 56.6094 36.6823 56.7656 37.0156 57.0781C37.3594 57.3906 37.651 57.8542 37.8906 58.4688C38.1823 59.1979 38.4948 59.8073 38.8281 60.2969C39.1719 60.7865 39.651 61.1927 40.2656 61.5156C40.8802 61.8281 41.6875 61.9844 42.6875 61.9844C44.0625 61.9844 45.1771 61.6667 46.0312 61.0312C46.8958 60.3854 47.3281 59.5833 47.3281 58.625C47.3281 57.8646 47.0938 57.25 46.625 56.7812C46.1667 56.3021 45.5677 55.9375 44.8281 55.6875C44.099 55.4375 43.1198 55.1719 41.8906 54.8906C40.2448 54.5052 38.8646 54.0573 37.75 53.5469C36.6458 53.026 35.7656 52.3229 35.1094 51.4375C34.4635 50.5417 34.1406 49.4323 34.1406 48.1094C34.1406 46.849 34.4844 45.7292 35.1719 44.75C35.8594 43.7708 36.8542 43.0208 38.1562 42.5C39.4583 41.9688 40.9896 41.7031 42.75 41.7031C44.1562 41.7031 45.3698 41.8802 46.3906 42.2344C47.4219 42.5781 48.276 43.0417 48.9531 43.625C49.6302 44.1979 50.125 44.8021 50.4375 45.4375C50.75 46.0729 50.9062 46.6927 50.9062 47.2969C50.9062 47.849 50.7083 48.349 50.3125 48.7969C49.9271 49.2344 49.4427 49.4531 48.8594 49.4531C48.3281 49.4531 47.9219 49.3229 47.6406 49.0625C47.3698 48.7917 47.0729 48.3542 46.75 47.75C46.3333 46.8854 45.8333 46.2135 45.25 45.7344C44.6667 45.2448 43.7292 45 42.4375 45C41.2396 45 40.2708 45.2656 39.5312 45.7969C38.8021 46.3177 38.4375 46.9479 38.4375 47.6875C38.4375 48.1458 38.5625 48.5417 38.8125 48.875C39.0625 49.2083 39.4062 49.4948 39.8438 49.7344C40.2812 49.974 40.724 50.1615 41.1719 50.2969C41.6198 50.4323 42.3594 50.6302 43.3906 50.8906C44.6823 51.1927 45.849 51.526 46.8906 51.8906C47.9427 52.2552 48.8333 52.6979 49.5625 53.2188C50.3021 53.7396 50.875 54.401 51.2812 55.2031C51.6979 55.9948 51.9062 56.9688 51.9062 58.125ZM69.7344 57.0312V62.7031C69.7344 63.599 69.5312 64.2708 69.125 64.7188C68.7188 65.1667 68.1823 65.3906 67.5156 65.3906C66.8698 65.3906 66.3438 65.1667 65.9375 64.7188C65.5417 64.2708 65.3438 63.599 65.3438 62.7031V55.9062C65.3438 54.8333 65.3073 54 65.2344 53.4062C65.1615 52.8125 64.9635 52.3281 64.6406 51.9531C64.3177 51.5677 63.8073 51.375 63.1094 51.375C61.7135 51.375 60.7917 51.8542 60.3438 52.8125C59.9062 53.7708 59.6875 55.1458 59.6875 56.9375V62.7031C59.6875 63.5885 59.4844 64.2604 59.0781 64.7188C58.6823 65.1667 58.1562 65.3906 57.5 65.3906C56.8542 65.3906 56.3229 65.1667 55.9062 64.7188C55.5 64.2604 55.2969 63.5885 55.2969 62.7031V50.5C55.2969 49.6979 55.4792 49.0885 55.8438 48.6719C56.2188 48.2552 56.7083 48.0469 57.3125 48.0469C57.8958 48.0469 58.3802 48.2448 58.7656 48.6406C59.1615 49.026 59.3594 49.5625 59.3594 50.25V50.6562C60.099 49.7708 60.8906 49.1198 61.7344 48.7031C62.5781 48.2865 63.5156 48.0781 64.5469 48.0781C65.6198 48.0781 66.5417 48.2917 67.3125 48.7188C68.0833 49.1458 68.7188 49.7917 69.2188 50.6562C69.9375 49.7812 70.7083 49.1354 71.5312 48.7188C72.3542 48.2917 73.2656 48.0781 74.2656 48.0781C75.4323 48.0781 76.4375 48.3073 77.2812 48.7656C78.125 49.224 78.7552 49.8802 79.1719 50.7344C79.5365 51.5052 79.7188 52.7188 79.7188 54.375V62.7031C79.7188 63.599 79.5156 64.2708 79.1094 64.7188C78.7031 65.1667 78.1667 65.3906 77.5 65.3906C76.8542 65.3906 76.3229 65.1667 75.9062 64.7188C75.5 64.2604 75.2969 63.5885 75.2969 62.7031V55.5312C75.2969 54.6146 75.2552 53.8802 75.1719 53.3281C75.099 52.776 74.8906 52.3125 74.5469 51.9375C74.2031 51.5625 73.6823 51.375 72.9844 51.375C72.4219 51.375 71.8854 51.5417 71.375 51.875C70.875 52.2083 70.4844 52.6562 70.2031 53.2188C69.8906 53.9375 69.7344 55.2083 69.7344 57.0312ZM94.6406 62.9844C93.6094 63.7865 92.6094 64.3906 91.6406 64.7969C90.6823 65.1927 89.6042 65.3906 88.4062 65.3906C87.3125 65.3906 86.349 65.1771 85.5156 64.75C84.6927 64.3125 84.0573 63.724 83.6094 62.9844C83.1615 62.2448 82.9375 61.4427 82.9375 60.5781C82.9375 59.4115 83.3073 58.4167 84.0469 57.5938C84.7865 56.7708 85.8021 56.2188 87.0938 55.9375C87.3646 55.875 88.0365 55.7344 89.1094 55.5156C90.1823 55.2969 91.099 55.099 91.8594 54.9219C92.6302 54.7344 93.4635 54.5104 94.3594 54.25C94.3073 53.125 94.0781 52.3021 93.6719 51.7812C93.276 51.25 92.4479 50.9844 91.1875 50.9844C90.1042 50.9844 89.2865 51.1354 88.7344 51.4375C88.1927 51.7396 87.724 52.1927 87.3281 52.7969C86.9427 53.401 86.6667 53.8021 86.5 54C86.3438 54.1875 86 54.2812 85.4688 54.2812C84.9896 54.2812 84.5729 54.1302 84.2188 53.8281C83.875 53.5156 83.7031 53.1198 83.7031 52.6406C83.7031 51.8906 83.9688 51.1615 84.5 50.4531C85.0312 49.7448 85.8594 49.1615 86.9844 48.7031C88.1094 48.2448 89.5104 48.0156 91.1875 48.0156C93.0625 48.0156 94.5365 48.2396 95.6094 48.6875C96.6823 49.125 97.4375 49.8229 97.875 50.7812C98.3229 51.7396 98.5469 53.0104 98.5469 54.5938C98.5469 55.5938 98.5417 56.4427 98.5312 57.1406C98.5312 57.8385 98.526 58.6146 98.5156 59.4688C98.5156 60.2708 98.6458 61.1094 98.9062 61.9844C99.1771 62.849 99.3125 63.4062 99.3125 63.6562C99.3125 64.0938 99.1042 64.4948 98.6875 64.8594C98.2812 65.2135 97.8177 65.3906 97.2969 65.3906C96.8594 65.3906 96.4271 65.1875 96 64.7812C95.5729 64.3646 95.1198 63.7656 94.6406 62.9844ZM94.3594 56.8125C93.7344 57.0417 92.8229 57.2865 91.625 57.5469C90.4375 57.7969 89.6146 57.9844 89.1562 58.1094C88.6979 58.224 88.2604 58.4583 87.8438 58.8125C87.4271 59.1562 87.2188 59.6406 87.2188 60.2656C87.2188 60.9115 87.4635 61.4635 87.9531 61.9219C88.4427 62.3698 89.0833 62.5938 89.875 62.5938C90.7188 62.5938 91.4948 62.4115 92.2031 62.0469C92.9219 61.6719 93.4479 61.1927 93.7812 60.6094C94.1667 59.9635 94.3594 58.901 94.3594 57.4219V56.8125ZM107.125 59.2344V62.7969C107.125 63.6615 106.922 64.3125 106.516 64.75C106.109 65.1771 105.594 65.3906 104.969 65.3906C104.354 65.3906 103.849 65.1719 103.453 64.7344C103.057 64.2969 102.859 63.651 102.859 62.7969V50.9219C102.859 49.0052 103.552 48.0469 104.938 48.0469C105.646 48.0469 106.156 48.2708 106.469 48.7188C106.781 49.1667 106.953 49.8281 106.984 50.7031C107.495 49.8281 108.016 49.1667 108.547 48.7188C109.089 48.2708 109.807 48.0469 110.703 48.0469C111.599 48.0469 112.469 48.2708 113.312 48.7188C114.156 49.1667 114.578 49.7604 114.578 50.5C114.578 51.0208 114.396 51.4531 114.031 51.7969C113.677 52.1302 113.292 52.2969 112.875 52.2969C112.719 52.2969 112.339 52.2031 111.734 52.0156C111.141 51.8177 110.615 51.7188 110.156 51.7188C109.531 51.7188 109.021 51.8854 108.625 52.2188C108.229 52.5417 107.922 53.026 107.703 53.6719C107.484 54.3177 107.333 55.0885 107.25 55.9844C107.167 56.8698 107.125 57.9531 107.125 59.2344ZM117.562 48.4219H118.031V45.8594C118.031 45.1719 118.047 44.6354 118.078 44.25C118.12 43.8542 118.224 43.5156 118.391 43.2344C118.557 42.9427 118.797 42.7083 119.109 42.5312C119.422 42.3438 119.771 42.25 120.156 42.25C120.698 42.25 121.188 42.4531 121.625 42.8594C121.917 43.1302 122.099 43.4635 122.172 43.8594C122.255 44.2448 122.297 44.7969 122.297 45.5156V48.4219H123.859C124.464 48.4219 124.922 48.5677 125.234 48.8594C125.557 49.1406 125.719 49.5052 125.719 49.9531C125.719 50.526 125.49 50.9271 125.031 51.1562C124.583 51.3854 123.938 51.5 123.094 51.5H122.297V59.3438C122.297 60.0104 122.318 60.526 122.359 60.8906C122.411 61.2448 122.536 61.5365 122.734 61.7656C122.943 61.9844 123.276 62.0938 123.734 62.0938C123.984 62.0938 124.323 62.0521 124.75 61.9688C125.177 61.875 125.51 61.8281 125.75 61.8281C126.094 61.8281 126.401 61.9688 126.672 62.25C126.953 62.5208 127.094 62.8594 127.094 63.2656C127.094 63.9531 126.719 64.4792 125.969 64.8438C125.219 65.2083 124.141 65.3906 122.734 65.3906C121.401 65.3906 120.391 65.1667 119.703 64.7188C119.016 64.2708 118.562 63.651 118.344 62.8594C118.135 62.0677 118.031 61.0104 118.031 59.6875V51.5H117.469C116.854 51.5 116.385 51.3542 116.062 51.0625C115.74 50.7708 115.578 50.401 115.578 49.9531C115.578 49.5052 115.745 49.1406 116.078 48.8594C116.422 48.5677 116.917 48.4219 117.562 48.4219Z" fill="black"/>
<path d="M50.8281 61.8594L49.99 61.3138L49.9864 61.3194L50.8281 61.8594ZM37.2188 64.1094L36.7106 64.9707L36.716 64.9738L37.2188 64.1094ZM34.6719 61.6562L33.8243 62.1871L33.8307 62.197L34.6719 61.6562ZM34.2812 57.2188L33.565 56.5209L33.5648 56.5211L34.2812 57.2188ZM37.0156 57.0781L36.3317 57.8077L36.3373 57.8129L36.343 57.8181L37.0156 57.0781ZM37.8906 58.4688L36.9589 58.832L36.9621 58.8401L37.8906 58.4688ZM38.8281 60.2969L38.0015 60.8597L38.0056 60.8656L38.0097 60.8715L38.8281 60.2969ZM40.2656 61.5156L39.8005 62.4009L39.8124 62.407L40.2656 61.5156ZM46.0312 61.0312L46.6281 61.8336L46.6297 61.8324L46.0312 61.0312ZM46.625 56.7812L45.9024 57.4725L45.91 57.4805L45.9179 57.4884L46.625 56.7812ZM44.8281 55.6875L44.5038 56.6335L44.5079 56.6348L44.8281 55.6875ZM41.8906 54.8906L41.6626 55.8643L41.6676 55.8654L41.8906 54.8906ZM37.75 53.5469L37.3234 54.4514L37.3336 54.4561L37.75 53.5469ZM35.1094 51.4375L34.2981 52.0224L34.306 52.033L35.1094 51.4375ZM38.1562 42.5L38.5276 43.4285L38.534 43.4259L38.1562 42.5ZM46.3906 42.2344L46.0628 43.1792L46.0744 43.1831L46.3906 42.2344ZM48.9531 43.625L48.3004 44.3826L48.3072 44.3884L48.9531 43.625ZM50.3125 48.7969L49.5632 48.1347L49.5621 48.1358L50.3125 48.7969ZM47.6406 49.0625L46.9335 49.7696L46.9471 49.7832L46.9612 49.7963L47.6406 49.0625ZM46.75 47.75L45.8492 48.1841L45.8582 48.203L45.8681 48.2214L46.75 47.75ZM45.25 45.7344L44.6071 46.5004L44.6153 46.5071L45.25 45.7344ZM39.5312 45.7969L40.1125 46.6106L40.1147 46.6091L39.5312 45.7969ZM38.8125 48.875L39.6125 48.275L38.8125 48.875ZM43.3906 50.8906L43.1458 51.8602L43.1543 51.8623L43.1629 51.8643L43.3906 50.8906ZM46.8906 51.8906L46.5603 52.8345L46.5632 52.8355L46.8906 51.8906ZM49.5625 53.2188L48.9812 54.0325L48.9867 54.0364L49.5625 53.2188ZM51.2812 55.2031L50.3892 55.655L50.3927 55.6619L50.3963 55.6689L51.2812 55.2031ZM51.9062 58.125H50.9062C50.9062 59.3272 50.5975 60.3806 49.99 61.3138L50.8281 61.8594L51.6662 62.4049C52.4962 61.1298 52.9062 59.6936 52.9062 58.125H51.9062ZM50.8281 61.8594L49.9864 61.3194C49.3971 62.2381 48.5162 62.9851 47.2893 63.5428L47.7031 64.4531L48.1169 65.3635C49.6401 64.6712 50.8425 63.689 51.6698 62.3993L50.8281 61.8594ZM47.7031 64.4531L47.2893 63.5428C46.0723 64.0959 44.5896 64.3906 42.8125 64.3906V65.3906V66.3906C44.8062 66.3906 46.5839 66.0603 48.1169 65.3635L47.7031 64.4531ZM42.8125 65.3906V64.3906C40.6722 64.3906 38.9952 63.9857 37.7215 63.2449L37.2188 64.1094L36.716 64.9738C38.3798 65.9414 40.432 66.3906 42.8125 66.3906V65.3906ZM37.2188 64.1094L37.7269 63.2481C36.8202 62.7132 36.0851 62.0054 35.5131 61.1155L34.6719 61.6562L33.8307 62.197C34.5711 63.3488 35.5339 64.2764 36.7106 64.9706L37.2188 64.1094ZM34.6719 61.6562L35.5194 61.1255C34.9478 60.2128 34.7031 59.3946 34.7031 58.6562H33.7031H32.7031C32.7031 59.8554 33.1042 61.0372 33.8244 62.187L34.6719 61.6562ZM33.7031 58.6562H34.7031C34.7031 58.3491 34.7978 58.1217 34.9977 57.9164L34.2812 57.2188L33.5648 56.5211C32.9939 57.1074 32.7031 57.8384 32.7031 58.6562H33.7031ZM34.2812 57.2188L34.9975 57.9166C35.1919 57.7171 35.4272 57.6094 35.7812 57.6094V56.6094V55.6094C34.9269 55.6094 34.1623 55.9079 33.565 56.5209L34.2812 57.2188ZM35.7812 56.6094V57.6094C36.0367 57.6094 36.1977 57.6821 36.3317 57.8077L37.0156 57.0781L37.6996 56.3486C37.1669 55.8492 36.505 55.6094 35.7812 55.6094V56.6094ZM37.0156 57.0781L36.343 57.8181C36.5347 57.9924 36.7534 58.3048 36.9589 58.832L37.8906 58.4688L38.8223 58.1055C38.5487 57.4035 38.184 56.7888 37.6883 56.3382L37.0156 57.0781ZM37.8906 58.4688L36.9621 58.8401C37.2726 59.6162 37.6167 60.2944 38.0015 60.8597L38.8281 60.2969L39.6547 59.7341C39.3729 59.3202 39.092 58.7796 38.8191 58.0974L37.8906 58.4688ZM38.8281 60.2969L38.0097 60.8715C38.4585 61.5107 39.0678 62.0159 39.8005 62.4009L40.2656 61.5156L40.7308 60.6304C40.2343 60.3695 39.8853 60.0622 39.6465 59.7222L38.8281 60.2969ZM40.2656 61.5156L39.8124 62.407C40.6162 62.8157 41.5958 62.9844 42.6875 62.9844V61.9844V60.9844C41.7792 60.9844 41.1442 60.8405 40.7189 60.6242L40.2656 61.5156ZM42.6875 61.9844V62.9844C44.2146 62.9844 45.557 62.6304 46.6281 61.8336L46.0312 61.0312L45.4344 60.2289C44.7972 60.7029 43.9104 60.9844 42.6875 60.9844V61.9844ZM46.0312 61.0312L46.6297 61.8324C47.7104 61.0251 48.3281 59.9418 48.3281 58.625H47.3281H46.3281C46.3281 59.2249 46.0812 59.7457 45.4328 60.2301L46.0312 61.0312ZM47.3281 58.625H48.3281C48.3281 57.6417 48.0163 56.7584 47.3321 56.0741L46.625 56.7812L45.9179 57.4884C46.1712 57.7416 46.3281 58.0875 46.3281 58.625H47.3281ZM46.625 56.7812L47.3476 56.09C46.7596 55.4752 46.0137 55.0327 45.1484 54.7402L44.8281 55.6875L44.5079 56.6348C45.1217 56.8423 45.5737 57.1289 45.9024 57.4725L46.625 56.7812ZM44.8281 55.6875L45.1524 54.7416C44.3759 54.4753 43.3585 54.2007 42.1137 53.9158L41.8906 54.8906L41.6676 55.8654C42.8811 56.1431 43.822 56.3997 44.5038 56.6334L44.8281 55.6875ZM41.8906 54.8906L42.1186 53.917C40.5151 53.5415 39.2026 53.1122 38.1664 52.6377L37.75 53.5469L37.3336 54.4561C38.5266 55.0024 39.9745 55.469 41.6626 55.8643L41.8906 54.8906ZM37.75 53.5469L38.1766 52.6424C37.2052 52.1842 36.4606 51.5812 35.9128 50.842L35.1094 51.4375L34.306 52.033C35.0707 53.0647 36.0864 53.8678 37.3234 54.4513L37.75 53.5469ZM35.1094 51.4375L35.9206 50.8527C35.4202 50.1587 35.1406 49.2649 35.1406 48.1094H34.1406H33.1406C33.1406 49.5997 33.5069 50.9246 34.2982 52.0223L35.1094 51.4375ZM34.1406 48.1094H35.1406C35.1406 47.043 35.4275 46.1262 35.9903 45.3246L35.1719 44.75L34.3535 44.1754C33.5413 45.3321 33.1406 46.655 33.1406 48.1094H34.1406ZM35.1719 44.75L35.9903 45.3246C36.5482 44.5301 37.3741 43.8899 38.5276 43.4285L38.1562 42.5L37.7849 41.5715C36.3342 42.1518 35.1706 43.0116 34.3535 44.1754L35.1719 44.75ZM38.1562 42.5L38.534 43.4259C39.6901 42.9542 41.0877 42.7031 42.75 42.7031V41.7031V40.7031C40.8915 40.7031 39.2265 40.9833 37.7785 41.5741L38.1562 42.5ZM42.75 41.7031V42.7031C44.0765 42.7031 45.1738 42.8707 46.0629 43.1791L46.3906 42.2344L46.7184 41.2896C45.5658 40.8897 44.236 40.7031 42.75 40.7031V41.7031ZM46.3906 42.2344L46.0744 43.1831C47.0081 43.4943 47.7408 43.9005 48.3004 44.3826L48.9531 43.625L49.6058 42.8674C48.8113 42.1828 47.8356 41.6619 46.7069 41.2857L46.3906 42.2344ZM48.9531 43.625L48.3072 44.3884C48.9049 44.8941 49.3017 45.3939 49.5401 45.8788L50.4375 45.4375L51.3349 44.9962C50.9483 44.2103 50.3555 43.5017 49.5991 42.8616L48.9531 43.625ZM50.4375 45.4375L49.5401 45.8788C49.7967 46.4004 49.9062 46.8699 49.9062 47.2969H50.9062H51.9062C51.9062 46.5155 51.7033 45.7454 51.3349 44.9962L50.4375 45.4375ZM50.9062 47.2969H49.9062C49.9062 47.584 49.812 47.8532 49.5632 48.1347L50.3125 48.7969L51.0618 49.4591C51.6047 48.8448 51.9062 48.1139 51.9062 47.2969H50.9062ZM50.3125 48.7969L49.5621 48.1358C49.3667 48.3577 49.1557 48.4531 48.8594 48.4531V49.4531V50.4531C49.7297 50.4531 50.4875 50.111 51.0629 49.4579L50.3125 48.7969ZM48.8594 49.4531V48.4531C48.4821 48.4531 48.3553 48.3614 48.32 48.3287L47.6406 49.0625L46.9612 49.7963C47.4884 50.2844 48.1741 50.4531 48.8594 50.4531V49.4531ZM47.6406 49.0625L48.3477 48.3554C48.1808 48.1884 47.9389 47.8529 47.6319 47.2786L46.75 47.75L45.8681 48.2214C46.207 48.8554 46.5588 49.3949 46.9335 49.7696L47.6406 49.0625ZM46.75 47.75L47.6508 47.3159C47.1877 46.3547 46.6064 45.5545 45.8847 44.9616L45.25 45.7344L44.6153 46.5071C45.0602 46.8726 45.479 47.4161 45.8492 48.1841L46.75 47.75ZM45.25 45.7344L45.8929 44.9684C45.0408 44.2533 43.8144 44 42.4375 44V45V46C43.6439 46 44.2925 46.2363 44.6071 46.5003L45.25 45.7344ZM42.4375 45V44C41.0958 44 39.9039 44.2979 38.9478 44.9847L39.5312 45.7969L40.1147 46.6091C40.6378 46.2333 41.3833 46 42.4375 46V45ZM39.5312 45.7969L38.95 44.9831C38.0209 45.6468 37.4375 46.5547 37.4375 47.6875H38.4375H39.4375C39.4375 47.3411 39.5832 46.9886 40.1125 46.6106L39.5312 45.7969ZM38.4375 47.6875H37.4375C37.4375 48.3394 37.6196 48.9512 38.0125 49.475L38.8125 48.875L39.6125 48.275C39.5054 48.1322 39.4375 47.9523 39.4375 47.6875H38.4375ZM38.8125 48.875L38.0125 49.475C38.3633 49.9427 38.8251 50.3167 39.3634 50.6115L39.8438 49.7344L40.3241 48.8573C39.9874 48.6729 39.7617 48.474 39.6125 48.275L38.8125 48.875ZM39.8438 49.7344L39.3634 50.6115C39.8577 50.8821 40.3641 51.0974 40.8825 51.2541L41.1719 50.2969L41.4613 49.3397C41.0838 49.2255 40.7048 49.0658 40.3241 48.8573L39.8438 49.7344ZM41.1719 50.2969L40.8825 51.2541C41.3544 51.3968 42.1135 51.5995 43.1458 51.8602L43.3906 50.8906L43.6355 49.9211C42.6053 49.6609 41.8852 49.4678 41.4613 49.3397L41.1719 50.2969ZM43.3906 50.8906L43.1629 51.8643C44.4265 52.1599 45.5582 52.4837 46.5603 52.8345L46.8906 51.8906L47.221 50.9468C46.1398 50.5683 44.9381 50.2255 43.6184 49.9169L43.3906 50.8906ZM46.8906 51.8906L46.5632 52.8355C47.5458 53.176 48.3462 53.5788 48.9813 54.0325L49.5625 53.2188L50.1437 52.405C49.3205 51.817 48.3396 51.3344 47.2181 50.9458L46.8906 51.8906ZM49.5625 53.2188L48.9867 54.0364C49.5934 54.4636 50.0573 54.9998 50.3892 55.655L51.2812 55.2031L52.1733 54.7513C51.6927 53.8023 51.0108 53.0156 50.1383 52.4011L49.5625 53.2188ZM51.2812 55.2031L50.3963 55.6689C50.7185 56.2811 50.9062 57.085 50.9062 58.125H51.9062H52.9062C52.9062 56.8525 52.6773 55.7085 52.1662 54.7374L51.2812 55.2031ZM65.9375 64.7188L65.1881 65.381L65.1968 65.3906L65.9375 64.7188ZM64.6406 51.9531L63.874 52.5954L63.8829 52.6056L64.6406 51.9531ZM60.3438 52.8125L59.4378 52.3891L59.4341 52.3972L60.3438 52.8125ZM59.0781 64.7188L58.3298 64.0554L58.3288 64.0566L59.0781 64.7188ZM55.9062 64.7188L55.1579 65.3821L55.1659 65.3911L55.1741 65.3999L55.9062 64.7188ZM55.8438 48.6719L55.1004 48.0028L55.0912 48.0134L55.8438 48.6719ZM58.7656 48.6406L58.0492 49.3382L58.0585 49.3478L58.068 49.3571L58.7656 48.6406ZM59.3594 50.6562H58.3594V53.4133L60.1269 51.2973L59.3594 50.6562ZM61.7344 48.7031L62.1772 49.5998L61.7344 48.7031ZM67.3125 48.7188L67.7971 47.844L67.3125 48.7188ZM69.2188 50.6562L68.3531 51.1569L69.0755 52.4061L69.9915 51.291L69.2188 50.6562ZM71.5312 48.7188L71.983 49.611L71.9919 49.6063L71.5312 48.7188ZM77.2812 48.7656L77.7586 47.8869L77.2812 48.7656ZM79.1719 50.7344L80.0759 50.3068L80.0706 50.296L79.1719 50.7344ZM75.9062 64.7188L75.1579 65.3821L75.1659 65.3911L75.1741 65.3999L75.9062 64.7188ZM75.1719 53.3281L74.1805 53.4591L74.1817 53.4682L74.1831 53.4774L75.1719 53.3281ZM71.375 51.875L70.8282 51.0377L70.8203 51.0429L71.375 51.875ZM70.2031 53.2188L69.3087 52.7715L69.2967 52.7955L69.2861 52.82L70.2031 53.2188ZM69.7344 57.0312H68.7344V62.7031H69.7344H70.7344V57.0312H69.7344ZM69.7344 62.7031H68.7344C68.7344 63.4676 68.5589 63.8544 68.3843 64.0469L69.125 64.7188L69.8657 65.3906C70.5036 64.6873 70.7344 63.7303 70.7344 62.7031H69.7344ZM69.125 64.7188L68.3843 64.0469C68.1882 64.2631 67.9324 64.3906 67.5156 64.3906V65.3906V66.3906C68.4322 66.3906 69.2493 66.0702 69.8657 65.3906L69.125 64.7188ZM67.5156 65.3906V64.3906C67.1303 64.3906 66.8809 64.2704 66.6782 64.0469L65.9375 64.7188L65.1968 65.3906C65.8066 66.063 66.6092 66.3906 67.5156 66.3906V65.3906ZM65.9375 64.7188L66.6868 64.0566C66.5165 63.8639 66.3438 63.4731 66.3438 62.7031H65.3438H64.3438C64.3438 63.7248 64.5668 64.6778 65.1882 65.3809L65.9375 64.7188ZM65.3438 62.7031H66.3438V55.9062H65.3438H64.3438V62.7031H65.3438ZM65.3438 55.9062H66.3438C66.3438 54.8191 66.3072 53.9383 66.2269 53.2844L65.2344 53.4062L64.2418 53.5281C64.3074 54.0617 64.3438 54.8476 64.3438 55.9062H65.3438ZM65.2344 53.4062L66.2269 53.2844C66.135 52.5359 65.8751 51.8542 65.3984 51.3006L64.6406 51.9531L63.8829 52.6056C64.052 52.802 64.1879 53.0891 64.2418 53.5281L65.2344 53.4062ZM64.6406 51.9531L65.4071 51.3109C64.8286 50.6203 63.9828 50.375 63.1094 50.375V51.375V52.375C63.6317 52.375 63.8069 52.5151 63.8741 52.5953L64.6406 51.9531ZM63.1094 51.375V50.375C61.4727 50.375 60.1046 50.9625 59.4378 52.3891L60.3438 52.8125L61.2497 53.2359C61.4788 52.7458 61.9543 52.375 63.1094 52.375V51.375ZM60.3438 52.8125L59.4341 52.3972C58.9093 53.5468 58.6875 55.0894 58.6875 56.9375H59.6875H60.6875C60.6875 55.2023 60.9032 53.9949 61.2534 53.2278L60.3438 52.8125ZM59.6875 56.9375H58.6875V62.7031H59.6875H60.6875V56.9375H59.6875ZM59.6875 62.7031H58.6875C58.6875 63.4514 58.5146 63.8469 58.3298 64.0554L59.0781 64.7188L59.8265 65.3821C60.4542 64.6739 60.6875 63.7257 60.6875 62.7031H59.6875ZM59.0781 64.7188L58.3288 64.0566C58.1427 64.2672 57.9011 64.3906 57.5 64.3906V65.3906V66.3906C58.4114 66.3906 59.2219 66.0662 59.8275 65.3809L59.0781 64.7188ZM57.5 65.3906V64.3906C57.1145 64.3906 56.8544 64.2698 56.6384 64.0376L55.9062 64.7188L55.1741 65.3999C55.7914 66.0635 56.5938 66.3906 57.5 66.3906V65.3906ZM55.9062 64.7188L56.6546 64.0554C56.4698 63.8469 56.2969 63.4514 56.2969 62.7031H55.2969H54.2969C54.2969 63.7257 54.5302 64.6739 55.1579 65.3821L55.9062 64.7188ZM55.2969 62.7031H56.2969V50.5H55.2969H54.2969V62.7031H55.2969ZM55.2969 50.5H56.2969C56.2969 49.8334 56.4498 49.4979 56.5963 49.3304L55.8438 48.6719L55.0912 48.0134C54.5086 48.6792 54.2969 49.5625 54.2969 50.5H55.2969ZM55.8438 48.6719L56.587 49.3408C56.7564 49.1526 56.967 49.0469 57.3125 49.0469V48.0469V47.0469C56.4496 47.0469 55.6811 47.3578 55.1005 48.0029L55.8438 48.6719ZM57.3125 48.0469V49.0469C57.6428 49.0469 57.8634 49.1475 58.0492 49.3382L58.7656 48.6406L59.4821 47.943C58.897 47.3421 58.1489 47.0469 57.3125 47.0469V48.0469ZM58.7656 48.6406L58.068 49.3571C58.2255 49.5104 58.3594 49.7623 58.3594 50.25H59.3594H60.3594C60.3594 49.3627 60.0974 48.5416 59.4632 47.9242L58.7656 48.6406ZM59.3594 50.25H58.3594V50.6562H59.3594H60.3594V50.25H59.3594ZM59.3594 50.6562L60.1269 51.2973C60.7969 50.4952 61.4831 49.9425 62.1772 49.5998L61.7344 48.7031L61.2916 47.8065C60.2981 48.2971 59.4011 49.0465 58.5919 50.0152L59.3594 50.6562ZM61.7344 48.7031L62.1772 49.5998C62.8704 49.2574 63.6542 49.0781 64.5469 49.0781V48.0781V47.0781C63.377 47.0781 62.2859 47.3155 61.2916 47.8065L61.7344 48.7031ZM64.5469 48.0781V49.0781C65.4869 49.0781 66.2344 49.2646 66.8279 49.5935L67.3125 48.7188L67.7971 47.844C66.849 47.3187 65.7527 47.0781 64.5469 47.0781V48.0781ZM67.3125 48.7188L66.8279 49.5935C67.4198 49.9214 67.9315 50.4278 68.3531 51.1569L69.2188 50.6562L70.0844 50.1556C69.506 49.1555 68.7468 48.3702 67.7971 47.844L67.3125 48.7188ZM69.2188 50.6562L69.9915 51.291C70.6418 50.4994 71.3085 49.9524 71.983 49.6109L71.5312 48.7188L71.0795 47.8266C70.1081 48.3184 69.2332 49.0631 68.446 50.0215L69.2188 50.6562ZM71.5312 48.7188L71.9919 49.6063C72.6615 49.2588 73.4131 49.0781 74.2656 49.0781V48.0781V47.0781C73.1182 47.0781 72.0469 47.3245 71.0706 47.8312L71.5312 48.7188ZM74.2656 48.0781V49.0781C75.3011 49.0781 76.135 49.281 76.8039 49.6443L77.2812 48.7656L77.7586 47.8869C76.74 47.3336 75.5635 47.0781 74.2656 47.0781V48.0781ZM77.2812 48.7656L76.8039 49.6443C77.4668 50.0044 77.9487 50.5077 78.2731 51.1728L79.1719 50.7344L80.0706 50.296C79.5617 49.2527 78.7832 48.4435 77.7586 47.8869L77.2812 48.7656ZM79.1719 50.7344L78.2679 51.1619C78.534 51.7247 78.7188 52.7529 78.7188 54.375H79.7188H80.7188C80.7188 52.6846 80.5389 51.2858 80.0759 50.3068L79.1719 50.7344ZM79.7188 54.375H78.7188V62.7031H79.7188H80.7188V54.375H79.7188ZM79.7188 62.7031H78.7188C78.7188 63.4676 78.5433 63.8544 78.3687 64.0469L79.1094 64.7188L79.8501 65.3906C80.4879 64.6873 80.7188 63.7303 80.7188 62.7031H79.7188ZM79.1094 64.7188L78.3687 64.0469C78.1726 64.2631 77.9168 64.3906 77.5 64.3906V65.3906V66.3906C78.4166 66.3906 79.2337 66.0702 79.8501 65.3906L79.1094 64.7188ZM77.5 65.3906V64.3906C77.1145 64.3906 76.8544 64.2698 76.6384 64.0376L75.9062 64.7188L75.1741 65.3999C75.7914 66.0635 76.5938 66.3906 77.5 66.3906V65.3906ZM75.9062 64.7188L76.6546 64.0554C76.4698 63.8469 76.2969 63.4514 76.2969 62.7031H75.2969H74.2969C74.2969 63.7257 74.5302 64.6739 75.1579 65.3821L75.9062 64.7188ZM75.2969 62.7031H76.2969V55.5312H75.2969H74.2969V62.7031H75.2969ZM75.2969 55.5312H76.2969C76.2969 54.592 76.2547 53.8015 76.1607 53.1789L75.1719 53.3281L74.1831 53.4774C74.2558 53.9589 74.2969 54.6372 74.2969 55.5312H75.2969ZM75.1719 53.3281L76.1633 53.1972C76.0662 52.4619 75.7795 51.8023 75.284 51.2618L74.5469 51.9375L73.8097 52.6132C74.0017 52.8227 74.1318 53.0902 74.1805 53.4591L75.1719 53.3281ZM74.5469 51.9375L75.284 51.2618C74.6884 50.612 73.8545 50.375 72.9844 50.375V51.375V52.375C73.5101 52.375 73.7178 52.513 73.8097 52.6132L74.5469 51.9375ZM72.9844 51.375V50.375C72.2114 50.375 71.487 50.6075 70.8282 51.0377L71.375 51.875L71.9218 52.7123C72.2838 52.4758 72.6324 52.375 72.9844 52.375V51.375ZM71.375 51.875L70.8203 51.0429C70.1686 51.4774 69.664 52.0609 69.3087 52.7715L70.2031 53.2188L71.0976 53.666C71.3047 53.2516 71.5814 52.9393 71.9297 52.7071L71.375 51.875ZM70.2031 53.2188L69.2861 52.82C68.8829 53.7473 68.7344 55.2061 68.7344 57.0312H69.7344H70.7344C70.7344 55.2106 70.8983 54.1277 71.1202 53.6175L70.2031 53.2188ZM94.6406 62.9844L95.4931 62.4615L94.9088 61.5089L94.0267 62.195L94.6406 62.9844ZM91.6406 64.7969L92.0224 65.7211L92.0274 65.7191L91.6406 64.7969ZM85.5156 64.75L85.0462 65.633L85.0528 65.6365L85.0595 65.6399L85.5156 64.75ZM84.0469 57.5938L83.3031 56.9253L84.0469 57.5938ZM87.0938 55.9375L87.3065 56.9147L87.3186 56.9119L87.0938 55.9375ZM91.8594 54.9219L92.0862 55.8959L92.0957 55.8935L91.8594 54.9219ZM94.3594 54.25L94.6385 55.2102L95.3947 54.9904L95.3583 54.2038L94.3594 54.25ZM93.6719 51.7812L92.87 52.3787L92.8766 52.3876L92.8834 52.3963L93.6719 51.7812ZM88.7344 51.4375L88.2543 50.5602L88.2473 50.5641L88.7344 51.4375ZM87.3281 52.7969L86.4916 52.2488L86.4851 52.2591L87.3281 52.7969ZM86.5 54L85.7351 53.3559L85.7318 53.3598L86.5 54ZM84.2188 53.8281L83.5461 54.5681L83.5578 54.5787L83.5698 54.589L84.2188 53.8281ZM86.9844 48.7031L86.6071 47.777L86.9844 48.7031ZM95.6094 48.6875L95.2241 49.6103L95.2318 49.6135L95.6094 48.6875ZM97.875 50.7812L96.9653 51.1966L96.9691 51.2047L97.875 50.7812ZM98.5312 57.1406L97.5314 57.1257L97.5312 57.1332V57.1406H98.5312ZM98.5156 59.4688L97.5156 59.4566V59.4688H98.5156ZM98.9062 61.9844L97.9478 62.2696L97.9498 62.2765L97.952 62.2833L98.9062 61.9844ZM98.6875 64.8594L99.3446 65.6131L99.346 65.612L98.6875 64.8594ZM96 64.7812L95.3016 65.4971L95.3108 65.5058L96 64.7812ZM94.3594 56.8125H95.3594V55.3807L94.0151 55.8736L94.3594 56.8125ZM91.625 57.5469L91.831 58.5254L91.8374 58.5241L91.625 57.5469ZM89.1562 58.1094L89.3988 59.0795L89.4091 59.0769L89.4194 59.0741L89.1562 58.1094ZM87.8438 58.8125L88.4801 59.5839L88.4858 59.5792L88.4914 59.5744L87.8438 58.8125ZM87.9531 61.9219L87.2697 62.6519L87.2781 62.6597L87.9531 61.9219ZM92.2031 62.0469L92.6608 62.936L92.6657 62.9335L92.2031 62.0469ZM93.7812 60.6094L92.9225 60.0969L92.9177 60.105L92.913 60.1132L93.7812 60.6094ZM94.6406 62.9844L94.0267 62.195C93.0489 62.9556 92.1245 63.5096 91.2539 63.8747L91.6406 64.7969L92.0274 65.7191C93.0943 65.2717 94.1699 64.6174 95.2546 63.7737L94.6406 62.9844ZM91.6406 64.7969L91.2589 63.8726C90.4389 64.2113 89.4933 64.3906 88.4062 64.3906V65.3906V66.3906C89.715 66.3906 90.9257 66.1741 92.0224 65.7211L91.6406 64.7969ZM88.4062 65.3906V64.3906C87.4445 64.3906 86.642 64.2036 85.9717 63.8601L85.5156 64.75L85.0595 65.6399C86.056 66.1506 87.1805 66.3906 88.4062 66.3906V65.3906ZM85.5156 64.75L85.9851 63.867C85.3085 63.5073 84.812 63.0397 84.4647 62.4663L83.6094 62.9844L82.754 63.5024C83.3026 64.4082 84.0769 65.1177 85.0462 65.633L85.5156 64.75ZM83.6094 62.9844L84.4647 62.4663C84.1114 61.883 83.9375 61.26 83.9375 60.5781H82.9375H81.9375C81.9375 61.6254 82.2115 62.6066 82.754 63.5024L83.6094 62.9844ZM82.9375 60.5781H83.9375C83.9375 59.6436 84.2256 58.8909 84.7906 58.2622L84.0469 57.5938L83.3031 56.9253C82.389 57.9424 81.9375 59.1794 81.9375 60.5781H82.9375ZM84.0469 57.5938L84.7906 58.2622C85.3644 57.6238 86.1789 57.1601 87.3065 56.9146L87.0938 55.9375L86.881 54.9604C85.4253 55.2774 84.2086 55.9178 83.3031 56.9253L84.0469 57.5938ZM87.0938 55.9375L87.3186 56.9119C87.5741 56.8529 88.2317 56.7151 89.3091 56.4955L89.1094 55.5156L88.9096 54.5358C87.8413 54.7536 87.155 54.8971 86.8689 54.9631L87.0938 55.9375ZM89.1094 55.5156L89.3091 56.4955C90.3878 56.2755 91.314 56.0756 92.0862 55.8958L91.8594 54.9219L91.6326 53.9479C90.8839 54.1223 89.9768 54.3182 88.9096 54.5358L89.1094 55.5156ZM91.8594 54.9219L92.0957 55.8935C92.8831 55.702 93.7309 55.4741 94.6385 55.2102L94.3594 54.25L94.0802 53.2898C93.1962 53.5467 92.3773 53.7667 91.623 53.9502L91.8594 54.9219ZM94.3594 54.25L95.3583 54.2038C95.3027 53.0025 95.0558 51.9296 94.4604 51.1662L93.6719 51.7812L92.8834 52.3963C93.1004 52.6745 93.3119 53.2475 93.3604 54.2962L94.3594 54.25ZM93.6719 51.7812L94.4738 51.1838C93.773 50.2433 92.4982 49.9844 91.1875 49.9844V50.9844V51.9844C92.3977 51.9844 92.7791 52.2567 92.87 52.3787L93.6719 51.7812ZM91.1875 50.9844V49.9844C90.0418 49.9844 89.0245 50.1389 88.2544 50.5602L88.7344 51.4375L89.2144 52.3148C89.5485 52.132 90.1665 51.9844 91.1875 51.9844V50.9844ZM88.7344 51.4375L88.2473 50.5641C87.5431 50.9569 86.9614 51.5319 86.4917 52.2488L87.3281 52.7969L88.1646 53.3449C88.4865 52.8535 88.8424 52.5223 89.2214 52.3109L88.7344 51.4375ZM87.3281 52.7969L86.4851 52.2591C86.0958 52.8693 85.853 53.2159 85.7351 53.3559L86.5 54L87.2649 54.6441C87.4804 54.3883 87.7896 53.9328 88.1712 53.3347L87.3281 52.7969ZM86.5 54L85.7318 53.3598C85.8324 53.239 85.9227 53.2296 85.8619 53.2462C85.8066 53.2612 85.6845 53.2812 85.4688 53.2812V54.2812V55.2812C85.7843 55.2812 86.0996 55.2544 86.3881 55.1757C86.671 55.0985 87.0113 54.9485 87.2682 54.6402L86.5 54ZM85.4688 54.2812V53.2812C85.2198 53.2812 85.0352 53.2101 84.8677 53.0673L84.2188 53.8281L83.5698 54.589C84.1107 55.0503 84.7593 55.2812 85.4688 55.2812V54.2812ZM84.2188 53.8281L84.8914 53.0882C84.7635 52.9719 84.7031 52.8481 84.7031 52.6406H83.7031H82.7031C82.7031 53.3915 82.9865 54.0594 83.5461 54.5681L84.2188 53.8281ZM83.7031 52.6406H84.7031C84.7031 52.1442 84.8743 51.6207 85.3 51.0531L84.5 50.4531L83.7 49.8531C83.0632 50.7022 82.7031 51.6371 82.7031 52.6406H83.7031ZM84.5 50.4531L85.3 51.0531C85.6893 50.5341 86.3446 50.0436 87.3617 49.6292L86.9844 48.7031L86.6071 47.777C85.3742 48.2793 84.3732 48.9555 83.7 49.8531L84.5 50.4531ZM86.9844 48.7031L87.3617 49.6292C88.3306 49.2345 89.5939 49.0156 91.1875 49.0156V48.0156V47.0156C89.427 47.0156 87.8881 47.2551 86.6071 47.777L86.9844 48.7031ZM91.1875 48.0156V49.0156C93.0015 49.0156 94.3252 49.2351 95.2241 49.6103L95.6094 48.6875L95.9946 47.7647C94.7477 47.2441 93.1235 47.0156 91.1875 47.0156V48.0156ZM95.6094 48.6875L95.2318 49.6135C96.0944 49.9652 96.6446 50.494 96.9653 51.1965L97.875 50.7812L98.7847 50.366C98.2304 49.1518 97.2702 48.2848 95.987 47.7615L95.6094 48.6875ZM97.875 50.7812L96.9691 51.2047C97.332 51.9812 97.5469 53.0904 97.5469 54.5938H98.5469H99.5469C99.5469 52.9304 99.3138 51.4979 98.7809 50.3578L97.875 50.7812ZM98.5469 54.5938H97.5469C97.5469 55.5907 97.5417 56.4344 97.5314 57.1257L98.5312 57.1406L99.5311 57.1555C99.5417 56.451 99.5469 55.5968 99.5469 54.5938H98.5469ZM98.5312 57.1406H97.5312C97.5312 57.8337 97.5261 58.6056 97.5157 59.4566L98.5156 59.4688L99.5155 59.4809C99.526 58.6236 99.5312 57.8434 99.5312 57.1406H98.5312ZM98.5156 59.4688H97.5156C97.5156 60.3797 97.6636 61.3146 97.9478 62.2696L98.9062 61.9844L99.8647 61.6991C99.6281 60.9042 99.5156 60.162 99.5156 59.4688H98.5156ZM98.9062 61.9844L97.952 62.2833C98.0841 62.7052 98.1787 63.0378 98.2392 63.2869C98.306 63.5616 98.3125 63.6615 98.3125 63.6562H99.3125H100.312C100.312 63.401 100.251 63.0973 100.183 62.8147C100.108 62.5065 99.9992 62.1281 99.8605 61.6854L98.9062 61.9844ZM99.3125 63.6562H98.3125C98.3125 63.7322 98.2906 63.8779 98.029 64.1068L98.6875 64.8594L99.346 65.612C99.9177 65.1117 100.312 64.4553 100.312 63.6562H99.3125ZM98.6875 64.8594L98.0304 64.1056C97.7993 64.3071 97.5671 64.3906 97.2969 64.3906V65.3906V66.3906C98.0684 66.3906 98.7632 66.12 99.3446 65.6131L98.6875 64.8594ZM97.2969 65.3906V64.3906C97.1944 64.3906 96.9963 64.3488 96.6892 64.0567L96 64.7812L95.3108 65.5058C95.8578 66.0262 96.5243 66.3906 97.2969 66.3906V65.3906ZM96 64.7812L96.6983 64.0655C96.353 63.7286 95.9494 63.2057 95.4931 62.4615L94.6406 62.9844L93.7882 63.5072C94.2901 64.3256 94.7928 65.0006 95.3017 65.497L96 64.7812ZM94.3594 56.8125L94.0151 55.8736C93.4549 56.079 92.5963 56.3124 91.4126 56.5697L91.625 57.5469L91.8374 58.5241C93.0496 58.2605 94.0138 58.0043 94.7036 57.7514L94.3594 56.8125ZM91.625 57.5469L91.419 56.5683C90.2328 56.8181 89.3833 57.0109 88.8931 57.1446L89.1562 58.1094L89.4194 59.0741C89.8459 58.9578 90.6422 58.7757 91.831 58.5254L91.625 57.5469ZM89.1562 58.1094L88.9137 57.1392C88.2843 57.2966 87.7115 57.6124 87.1961 58.0506L87.8438 58.8125L88.4914 59.5744C88.8093 59.3042 89.1116 59.1513 89.3988 59.0795L89.1562 58.1094ZM87.8438 58.8125L87.2074 58.0411C86.5229 58.6058 86.2188 59.3945 86.2188 60.2656H87.2188H88.2188C88.2188 59.8867 88.3313 59.7067 88.4801 59.5839L87.8438 58.8125ZM87.2188 60.2656H86.2188C86.2188 61.1999 86.5869 62.0127 87.2697 62.6519L87.9531 61.9219L88.6366 61.1919C88.3402 60.9144 88.2188 60.623 88.2188 60.2656H87.2188ZM87.9531 61.9219L87.2781 62.6597C87.9865 63.3078 88.8845 63.5938 89.875 63.5938V62.5938V61.5938C89.2822 61.5938 88.8989 61.4318 88.6281 61.1841L87.9531 61.9219ZM89.875 62.5938V63.5938C90.8683 63.5938 91.8025 63.3778 92.6608 62.936L92.2031 62.0469L91.7455 61.1577C91.1871 61.4452 90.5692 61.5938 89.875 61.5938V62.5938ZM92.2031 62.0469L92.6657 62.9335C93.5189 62.4883 94.2031 61.8867 94.6495 61.1055L93.7812 60.6094L92.913 60.1132C92.6928 60.4987 92.3249 60.8554 91.7406 61.1603L92.2031 62.0469ZM93.7812 60.6094L94.64 61.1218C95.171 60.2321 95.3594 58.9376 95.3594 57.4219H94.3594H93.3594C93.3594 58.8645 93.1624 59.695 92.9225 60.0969L93.7812 60.6094ZM94.3594 57.4219H95.3594V56.8125H94.3594H93.3594V57.4219H94.3594ZM106.516 64.75L107.24 65.4393L107.248 65.4305L106.516 64.75ZM106.469 48.7188L105.649 49.2909L106.469 48.7188ZM106.984 50.7031L105.985 50.7388L106.108 54.1897L107.848 51.207L106.984 50.7031ZM108.547 48.7188L107.91 47.9481L107.902 47.9542L108.547 48.7188ZM113.312 48.7188L112.844 49.602L113.312 48.7188ZM114.031 51.7969L114.717 52.5251L114.717 52.5245L114.031 51.7969ZM111.734 52.0156L111.418 52.9643L111.428 52.9676L111.438 52.9707L111.734 52.0156ZM108.625 52.2188L109.257 52.9936L109.263 52.9887L109.269 52.9837L108.625 52.2188ZM107.25 55.9844L108.246 56.0781L108.246 56.077L107.25 55.9844ZM107.125 59.2344H106.125V62.7969H107.125H108.125V59.2344H107.125ZM107.125 62.7969H106.125C106.125 63.5211 105.954 63.8854 105.783 64.0695L106.516 64.75L107.248 65.4305C107.89 64.7396 108.125 63.8018 108.125 62.7969H107.125ZM106.516 64.75L105.791 64.0608C105.586 64.2764 105.338 64.3906 104.969 64.3906V65.3906V66.3906C105.849 66.3906 106.633 66.0778 107.24 65.4392L106.516 64.75ZM104.969 65.3906V64.3906C104.623 64.3906 104.392 64.2817 104.195 64.0635L103.453 64.7344L102.712 65.4053C103.306 66.062 104.085 66.3906 104.969 66.3906V65.3906ZM103.453 64.7344L104.195 64.0635C104.026 63.8775 103.859 63.5127 103.859 62.7969H102.859H101.859C101.859 63.7894 102.088 64.7162 102.712 65.4053L103.453 64.7344ZM102.859 62.7969H103.859V50.9219H102.859H101.859V62.7969H102.859ZM102.859 50.9219H103.859C103.859 50.0541 104.022 49.5836 104.189 49.3514C104.314 49.1794 104.503 49.0469 104.938 49.0469V48.0469V47.0469C103.987 47.0469 103.137 47.3935 102.568 48.1798C102.044 48.906 101.859 49.873 101.859 50.9219H102.859ZM104.938 48.0469V49.0469C105.427 49.0469 105.577 49.1887 105.649 49.2909L106.469 48.7188L107.289 48.1466C106.735 47.353 105.865 47.0469 104.938 47.0469V48.0469ZM106.469 48.7188L105.649 49.2909C105.803 49.5123 105.957 49.9505 105.985 50.7388L106.984 50.7031L107.984 50.6674C107.949 49.7057 107.759 48.8211 107.289 48.1466L106.469 48.7188ZM106.984 50.7031L107.848 51.207C108.325 50.3897 108.778 49.832 109.191 49.4833L108.547 48.7188L107.902 47.9542C107.253 48.5013 106.665 49.2666 106.121 50.1993L106.984 50.7031ZM108.547 48.7188L109.184 49.4894C109.502 49.2266 109.975 49.0469 110.703 49.0469V48.0469V47.0469C109.64 47.0469 108.675 47.3151 107.91 47.9481L108.547 48.7188ZM110.703 48.0469V49.0469C111.425 49.0469 112.134 49.2255 112.844 49.602L113.312 48.7188L113.781 47.8355C112.803 47.3162 111.773 47.0469 110.703 47.0469V48.0469ZM113.312 48.7188L112.844 49.602C113.472 49.9356 113.578 50.2416 113.578 50.5H114.578H115.578C115.578 49.2792 114.84 48.3977 113.781 47.8355L113.312 48.7188ZM114.578 50.5H113.578C113.578 50.7576 113.501 50.9227 113.345 51.0693L114.031 51.7969L114.717 52.5245C115.291 51.9835 115.578 51.284 115.578 50.5H114.578ZM114.031 51.7969L113.346 51.0687C113.144 51.2587 112.995 51.2969 112.875 51.2969V52.2969V53.2969C113.589 53.2969 114.21 53.0018 114.717 52.5251L114.031 51.7969ZM112.875 52.2969V51.2969C112.921 51.2969 112.933 51.3022 112.888 51.2942C112.851 51.2877 112.794 51.2757 112.712 51.2556C112.549 51.2155 112.324 51.1515 112.031 51.0606L111.734 52.0156L111.438 52.9707C111.749 53.0672 112.016 53.1439 112.233 53.1975C112.419 53.2433 112.661 53.2969 112.875 53.2969V52.2969ZM111.734 52.0156L112.051 51.0669C111.389 50.8466 110.753 50.7188 110.156 50.7188V51.7188V52.7188C110.476 52.7188 110.892 52.7888 111.418 52.9643L111.734 52.0156ZM110.156 51.7188V50.7188C109.347 50.7188 108.593 50.9388 107.981 51.4538L108.625 52.2188L109.269 52.9837C109.449 52.8321 109.716 52.7188 110.156 52.7188V51.7188ZM108.625 52.2188L107.993 51.4439C107.41 51.9191 107.015 52.5853 106.756 53.3511L107.703 53.6719L108.65 53.9927C108.828 53.4668 109.048 53.1642 109.257 52.9936L108.625 52.2188ZM107.703 53.6719L106.756 53.3511C106.506 54.09 106.343 54.9413 106.254 55.8918L107.25 55.9844L108.246 56.077C108.324 55.2358 108.463 54.5455 108.65 53.9927L107.703 53.6719ZM107.25 55.9844L106.254 55.8907C106.167 56.8175 106.125 57.9342 106.125 59.2344H107.125H108.125C108.125 57.9721 108.166 56.9221 108.246 56.0781L107.25 55.9844ZM118.031 48.4219V49.4219H119.031V48.4219H118.031ZM118.078 44.25L117.084 44.1453L117.082 44.1572L117.081 44.1692L118.078 44.25ZM118.391 43.2344L119.251 43.7442L119.255 43.7374L119.259 43.7305L118.391 43.2344ZM119.109 42.5312L119.602 43.4013L119.613 43.3951L119.624 43.3887L119.109 42.5312ZM121.625 42.8594L120.945 43.5922L121.625 42.8594ZM122.172 43.8594L121.188 44.0405L121.191 44.0557L121.194 44.0707L122.172 43.8594ZM122.297 48.4219H121.297V49.4219H122.297V48.4219ZM125.234 48.8594L124.552 49.5904L124.565 49.6022L124.578 49.6135L125.234 48.8594ZM125.031 51.1562L124.584 50.2618L124.576 50.266L125.031 51.1562ZM122.297 51.5V50.5H121.297V51.5H122.297ZM122.359 60.8906L121.366 61.0042L121.368 61.0202L121.37 61.0361L122.359 60.8906ZM122.734 61.7656L121.978 62.4192L121.993 62.4377L122.01 62.4553L122.734 61.7656ZM124.75 61.9688L124.942 62.9502L124.953 62.948L124.964 62.9455L124.75 61.9688ZM126.672 62.25L125.952 62.9436L125.965 62.9572L125.978 62.9703L126.672 62.25ZM118.344 62.8594L117.377 63.1139L117.38 63.1257L118.344 62.8594ZM118.031 51.5H119.031V50.5H118.031V51.5ZM116.078 48.8594L116.723 49.6237L116.725 49.6219L116.078 48.8594ZM117.562 48.4219V49.4219H118.031V48.4219V47.4219H117.562V48.4219ZM118.031 48.4219H119.031V45.8594H118.031H117.031V48.4219H118.031ZM118.031 45.8594H119.031C119.031 45.1816 119.047 44.6764 119.075 44.3308L118.078 44.25L117.081 44.1692C117.047 44.5944 117.031 45.1621 117.031 45.8594H118.031ZM118.078 44.25L119.073 44.3547C119.102 44.0715 119.172 43.8777 119.251 43.7442L118.391 43.2344L117.53 42.7246C117.276 43.1535 117.137 43.6368 117.084 44.1453L118.078 44.25ZM118.391 43.2344L119.259 43.7305C119.33 43.6058 119.435 43.4961 119.602 43.4013L119.109 42.5312L118.616 41.6612C118.159 41.9206 117.784 42.2796 117.522 42.7382L118.391 43.2344ZM119.109 42.5312L119.624 43.3887C119.772 43.2999 119.941 43.25 120.156 43.25V42.25V41.25C119.6 41.25 119.072 41.3876 118.595 41.6738L119.109 42.5312ZM120.156 42.25V43.25C120.419 43.25 120.671 43.3386 120.945 43.5922L121.625 42.8594L122.305 42.1266C121.704 41.5676 120.977 41.25 120.156 41.25V42.25ZM121.625 42.8594L120.945 43.5922C121.077 43.7148 121.154 43.8538 121.188 44.0405L122.172 43.8594L123.155 43.6782C123.044 43.0732 122.757 42.5457 122.305 42.1266L121.625 42.8594ZM122.172 43.8594L121.194 44.0707C121.255 44.3518 121.297 44.8201 121.297 45.5156H122.297H123.297C123.297 44.7737 123.255 44.1378 123.149 43.648L122.172 43.8594ZM122.297 45.5156H121.297V48.4219H122.297H123.297V45.5156H122.297ZM122.297 48.4219V49.4219H123.859V48.4219V47.4219H122.297V48.4219ZM123.859 48.4219V49.4219C124.315 49.4219 124.489 49.5318 124.552 49.5904L125.234 48.8594L125.917 48.1283C125.354 47.6036 124.612 47.4219 123.859 47.4219V48.4219ZM125.234 48.8594L124.578 49.6135C124.671 49.6951 124.719 49.7792 124.719 49.9531H125.719H126.719C126.719 49.2312 126.443 48.5862 125.891 48.1053L125.234 48.8594ZM125.719 49.9531H124.719C124.719 50.107 124.688 50.1703 124.679 50.1875C124.673 50.1981 124.657 50.2255 124.584 50.2618L125.031 51.1562L125.478 52.0507C125.864 51.8578 126.192 51.5702 126.415 51.1797C126.634 50.7958 126.719 50.3722 126.719 49.9531H125.719ZM125.031 51.1562L124.576 50.266C124.334 50.3898 123.873 50.5 123.094 50.5V51.5V52.5C124.002 52.5 124.833 52.381 125.487 52.0465L125.031 51.1562ZM123.094 51.5V50.5H122.297V51.5V52.5H123.094V51.5ZM122.297 51.5H121.297V59.3438H122.297H123.297V51.5H122.297ZM122.297 59.3438H121.297C121.297 60.0231 121.318 60.5832 121.366 61.0042L122.359 60.8906L123.353 60.7771C123.318 60.4689 123.297 59.9977 123.297 59.3438H122.297ZM122.359 60.8906L121.37 61.0361C121.445 61.5436 121.634 62.0218 121.978 62.4192L122.734 61.7656L123.491 61.112C123.439 61.0511 123.378 60.946 123.349 60.7451L122.359 60.8906ZM122.734 61.7656L122.01 62.4553C122.486 62.9549 123.143 63.0938 123.734 63.0938V62.0938V61.0938C123.581 61.0938 123.493 61.0749 123.452 61.0616C123.417 61.05 123.432 61.0478 123.459 61.076L122.734 61.7656ZM123.734 62.0938V63.0938C124.079 63.0938 124.49 63.0383 124.942 62.9502L124.75 61.9688L124.558 60.9873C124.156 61.0659 123.89 61.0938 123.734 61.0938V62.0938ZM124.75 61.9688L124.964 62.9455C125.369 62.8568 125.619 62.8281 125.75 62.8281V61.8281V60.8281C125.402 60.8281 124.986 60.8932 124.536 60.992L124.75 61.9688ZM125.75 61.8281V62.8281C125.784 62.8281 125.841 62.829 125.952 62.9436L126.672 62.25L127.392 61.5564C126.961 61.1085 126.403 60.8281 125.75 60.8281V61.8281ZM126.672 62.25L125.978 62.9703C126.055 63.0443 126.094 63.1188 126.094 63.2656H127.094H128.094C128.094 62.6 127.851 61.9974 127.366 61.5297L126.672 62.25ZM127.094 63.2656H126.094C126.094 63.4154 126.057 63.5129 125.998 63.5953C125.932 63.6882 125.799 63.8145 125.532 63.9444L125.969 64.8438L126.406 65.7431C126.889 65.5084 127.318 65.1894 127.627 64.7563C127.943 64.3126 128.094 63.8033 128.094 63.2656H127.094ZM125.969 64.8438L125.532 63.9444C124.981 64.2121 124.08 64.3906 122.734 64.3906V65.3906V66.3906C124.202 66.3906 125.457 66.2046 126.406 65.7431L125.969 64.8438ZM122.734 65.3906V64.3906C121.485 64.3906 120.702 64.1758 120.249 63.8809L119.703 64.7188L119.157 65.5566C120.08 66.1575 121.317 66.3906 122.734 66.3906V65.3906ZM119.703 64.7188L120.249 63.8809C119.766 63.5663 119.461 63.1498 119.308 62.593L118.344 62.8594L117.38 63.1257C117.664 64.1522 118.265 64.9754 119.157 65.5566L119.703 64.7188ZM118.344 62.8594L119.311 62.6049C119.134 61.9312 119.031 60.9703 119.031 59.6875H118.031H117.031C117.031 61.0505 117.137 62.2042 117.377 63.1139L118.344 62.8594ZM118.031 59.6875H119.031V51.5H118.031H117.031V59.6875H118.031ZM118.031 51.5V50.5H117.469V51.5V52.5H118.031V51.5ZM117.469 51.5V50.5C117 50.5 116.808 50.3886 116.733 50.3204L116.062 51.0625L115.392 51.8046C115.963 52.3197 116.708 52.5 117.469 52.5V51.5ZM116.062 51.0625L116.733 50.3204C116.627 50.2246 116.578 50.1276 116.578 49.9531H115.578H114.578C114.578 50.6745 114.852 51.3171 115.392 51.8046L116.062 51.0625ZM115.578 49.9531H116.578C116.578 49.7907 116.622 49.7091 116.723 49.6237L116.078 48.8594L115.433 48.0951C114.868 48.5722 114.578 49.2197 114.578 49.9531H115.578ZM116.078 48.8594L116.725 49.6219C116.824 49.5381 117.053 49.4219 117.562 49.4219V48.4219V47.4219C116.78 47.4219 116.02 47.5973 115.431 48.0969L116.078 48.8594Z" fill="#D5C6C6" mask="url(#path-1-outside-1_69_881)"/>
<path d="M45.9062 95.125C45.9062 96.5104 45.5469 97.7552 44.8281 98.8594C44.1198 99.9635 43.0781 100.828 41.7031 101.453C40.3281 102.078 38.6979 102.391 36.8125 102.391C34.5521 102.391 32.6875 101.964 31.2188 101.109C30.1771 100.495 29.3281 99.6771 28.6719 98.6562C28.026 97.625 27.7031 96.625 27.7031 95.6562C27.7031 95.0938 27.8958 94.6146 28.2812 94.2188C28.6771 93.8125 29.1771 93.6094 29.7812 93.6094C30.2708 93.6094 30.6823 93.7656 31.0156 94.0781C31.3594 94.3906 31.651 94.8542 31.8906 95.4688C32.1823 96.1979 32.4948 96.8073 32.8281 97.2969C33.1719 97.7865 33.651 98.1927 34.2656 98.5156C34.8802 98.8281 35.6875 98.9844 36.6875 98.9844C38.0625 98.9844 39.1771 98.6667 40.0312 98.0312C40.8958 97.3854 41.3281 96.5833 41.3281 95.625C41.3281 94.8646 41.0938 94.25 40.625 93.7812C40.1667 93.3021 39.5677 92.9375 38.8281 92.6875C38.099 92.4375 37.1198 92.1719 35.8906 91.8906C34.2448 91.5052 32.8646 91.0573 31.75 90.5469C30.6458 90.026 29.7656 89.3229 29.1094 88.4375C28.4635 87.5417 28.1406 86.4323 28.1406 85.1094C28.1406 83.849 28.4844 82.7292 29.1719 81.75C29.8594 80.7708 30.8542 80.0208 32.1562 79.5C33.4583 78.9688 34.9896 78.7031 36.75 78.7031C38.1562 78.7031 39.3698 78.8802 40.3906 79.2344C41.4219 79.5781 42.276 80.0417 42.9531 80.625C43.6302 81.1979 44.125 81.8021 44.4375 82.4375C44.75 83.0729 44.9062 83.6927 44.9062 84.2969C44.9062 84.849 44.7083 85.349 44.3125 85.7969C43.9271 86.2344 43.4427 86.4531 42.8594 86.4531C42.3281 86.4531 41.9219 86.3229 41.6406 86.0625C41.3698 85.7917 41.0729 85.3542 40.75 84.75C40.3333 83.8854 39.8333 83.2135 39.25 82.7344C38.6667 82.2448 37.7292 82 36.4375 82C35.2396 82 34.2708 82.2656 33.5312 82.7969C32.8021 83.3177 32.4375 83.9479 32.4375 84.6875C32.4375 85.1458 32.5625 85.5417 32.8125 85.875C33.0625 86.2083 33.4062 86.4948 33.8438 86.7344C34.2812 86.974 34.724 87.1615 35.1719 87.2969C35.6198 87.4323 36.3594 87.6302 37.3906 87.8906C38.6823 88.1927 39.849 88.526 40.8906 88.8906C41.9427 89.2552 42.8333 89.6979 43.5625 90.2188C44.3021 90.7396 44.875 91.401 45.2812 92.2031C45.6979 92.9948 45.9062 93.9688 45.9062 95.125ZM64.8438 97.1094C64.8438 97.6406 64.6823 98.2083 64.3594 98.8125C64.0469 99.4167 63.5625 99.9948 62.9062 100.547C62.2604 101.089 61.4427 101.526 60.4531 101.859C59.4635 102.193 58.349 102.359 57.1094 102.359C54.474 102.359 52.4167 101.594 50.9375 100.062C49.4583 98.5208 48.7188 96.4583 48.7188 93.875C48.7188 92.125 49.0573 90.5781 49.7344 89.2344C50.4115 87.8906 51.3906 86.8542 52.6719 86.125C53.9531 85.3854 55.4844 85.0156 57.2656 85.0156C58.3698 85.0156 59.3802 85.1771 60.2969 85.5C61.224 85.8229 62.0052 86.2396 62.6406 86.75C63.2865 87.2604 63.776 87.8073 64.1094 88.3906C64.4531 88.9635 64.625 89.5 64.625 90C64.625 90.5104 64.4323 90.9427 64.0469 91.2969C63.6719 91.651 63.2135 91.8281 62.6719 91.8281C62.3177 91.8281 62.0208 91.7396 61.7812 91.5625C61.5521 91.375 61.2917 91.0781 61 90.6719C60.4792 89.8802 59.9323 89.2865 59.3594 88.8906C58.7969 88.4948 58.0781 88.2969 57.2031 88.2969C55.9427 88.2969 54.9271 88.7917 54.1562 89.7812C53.3854 90.7604 53 92.1042 53 93.8125C53 94.6146 53.099 95.3542 53.2969 96.0312C53.4948 96.6979 53.7812 97.2708 54.1562 97.75C54.5312 98.2188 54.9844 98.5781 55.5156 98.8281C56.0469 99.0677 56.6302 99.1875 57.2656 99.1875C58.1198 99.1875 58.849 98.9896 59.4531 98.5938C60.0677 98.1979 60.6094 97.5938 61.0781 96.7812C61.3385 96.3021 61.6198 95.9271 61.9219 95.6562C62.224 95.3854 62.5938 95.25 63.0312 95.25C63.5521 95.25 63.9844 95.4479 64.3281 95.8438C64.6719 96.2396 64.8438 96.6615 64.8438 97.1094ZM71.9375 81.2969V87.625C72.4792 87 73.0052 86.5052 73.5156 86.1406C74.0365 85.776 74.6094 85.5052 75.2344 85.3281C75.8594 85.1406 76.5312 85.0469 77.25 85.0469C78.3333 85.0469 79.2917 85.276 80.125 85.7344C80.9688 86.1927 81.6302 86.8594 82.1094 87.7344C82.4115 88.2448 82.6146 88.8177 82.7188 89.4531C82.8229 90.0781 82.875 90.8021 82.875 91.625V99.7969C82.875 100.651 82.6771 101.297 82.2812 101.734C81.8958 102.172 81.3802 102.391 80.7344 102.391C79.3281 102.391 78.625 101.526 78.625 99.7969V92.5938C78.625 91.2292 78.4219 90.1823 78.0156 89.4531C77.6094 88.7135 76.8385 88.3438 75.7031 88.3438C74.9427 88.3438 74.2552 88.5625 73.6406 89C73.0365 89.4271 72.5833 90.0156 72.2812 90.7656C72.0521 91.401 71.9375 92.5312 71.9375 94.1562V99.7969C71.9375 100.641 71.7448 101.286 71.3594 101.734C70.9844 102.172 70.4583 102.391 69.7812 102.391C68.375 102.391 67.6719 101.526 67.6719 99.7969V81.2969C67.6719 80.4323 67.8542 79.7865 68.2188 79.3594C68.5938 78.9219 69.1146 78.7031 69.7812 78.7031C70.4583 78.7031 70.9844 78.9219 71.3594 79.3594C71.7448 79.7969 71.9375 80.4427 71.9375 81.2969ZM103.078 93.7188C103.078 94.9896 102.88 96.1615 102.484 97.2344C102.089 98.3073 101.516 99.2292 100.766 100C100.016 100.771 99.1198 101.365 98.0781 101.781C97.0365 102.188 95.8646 102.391 94.5625 102.391C93.2708 102.391 92.1094 102.182 91.0781 101.766C90.0469 101.349 89.151 100.755 88.3906 99.9844C87.6406 99.2031 87.0677 98.2865 86.6719 97.2344C86.2865 96.1719 86.0938 95 86.0938 93.7188C86.0938 92.4271 86.2917 91.2448 86.6875 90.1719C87.0833 89.099 87.651 88.1823 88.3906 87.4219C89.1302 86.6615 90.026 86.0781 91.0781 85.6719C92.1302 85.2552 93.2917 85.0469 94.5625 85.0469C95.8542 85.0469 97.026 85.2552 98.0781 85.6719C99.1302 86.0885 100.031 86.6823 100.781 87.4531C101.531 88.224 102.099 89.1406 102.484 90.2031C102.88 91.2656 103.078 92.4375 103.078 93.7188ZM98.7969 93.7188C98.7969 91.9792 98.4115 90.625 97.6406 89.6562C96.8802 88.6875 95.8542 88.2031 94.5625 88.2031C93.7292 88.2031 92.9948 88.4219 92.3594 88.8594C91.724 89.2865 91.2344 89.9219 90.8906 90.7656C90.5469 91.6094 90.375 92.5938 90.375 93.7188C90.375 94.8333 90.5417 95.8073 90.875 96.6406C91.2188 97.474 91.7031 98.1146 92.3281 98.5625C92.9635 99 93.7083 99.2188 94.5625 99.2188C95.8542 99.2188 96.8802 98.7344 97.6406 97.7656C98.4115 96.7865 98.7969 95.4375 98.7969 93.7188ZM122.422 93.7188C122.422 94.9896 122.224 96.1615 121.828 97.2344C121.432 98.3073 120.859 99.2292 120.109 100C119.359 100.771 118.464 101.365 117.422 101.781C116.38 102.188 115.208 102.391 113.906 102.391C112.615 102.391 111.453 102.182 110.422 101.766C109.391 101.349 108.495 100.755 107.734 99.9844C106.984 99.2031 106.411 98.2865 106.016 97.2344C105.63 96.1719 105.438 95 105.438 93.7188C105.438 92.4271 105.635 91.2448 106.031 90.1719C106.427 89.099 106.995 88.1823 107.734 87.4219C108.474 86.6615 109.37 86.0781 110.422 85.6719C111.474 85.2552 112.635 85.0469 113.906 85.0469C115.198 85.0469 116.37 85.2552 117.422 85.6719C118.474 86.0885 119.375 86.6823 120.125 87.4531C120.875 88.224 121.443 89.1406 121.828 90.2031C122.224 91.2656 122.422 92.4375 122.422 93.7188ZM118.141 93.7188C118.141 91.9792 117.755 90.625 116.984 89.6562C116.224 88.6875 115.198 88.2031 113.906 88.2031C113.073 88.2031 112.339 88.4219 111.703 88.8594C111.068 89.2865 110.578 89.9219 110.234 90.7656C109.891 91.6094 109.719 92.5938 109.719 93.7188C109.719 94.8333 109.885 95.8073 110.219 96.6406C110.562 97.474 111.047 98.1146 111.672 98.5625C112.307 99 113.052 99.2188 113.906 99.2188C115.198 99.2188 116.224 98.7344 116.984 97.7656C117.755 96.7865 118.141 95.4375 118.141 93.7188ZM125.797 99.7969V81.2969C125.797 80.4427 125.984 79.7969 126.359 79.3594C126.745 78.9219 127.26 78.7031 127.906 78.7031C128.552 78.7031 129.073 78.9219 129.469 79.3594C129.865 79.7865 130.062 80.4323 130.062 81.2969V99.7969C130.062 100.661 129.859 101.312 129.453 101.75C129.057 102.177 128.542 102.391 127.906 102.391C127.281 102.391 126.771 102.167 126.375 101.719C125.99 101.271 125.797 100.63 125.797 99.7969Z" fill="#483D3D"/>
</svg>
